<svg version="1.2" xmlns="http://www.w3.org/2000/svg" viewBox="0 0 1538 747" width="1538" height="747"><style>.a{fill:#ffd17e}</style><path class="a" d="m1519.6 151.8l-22.4 21.9c8.6-6 16.2-13.4 22.4-21.9zm-164-95.9l49.1-48.1c-21.7 9.4-39.3 26.6-49.1 48.1zm106.8-53.8l-113.7 111.4q1.1 5.6 2.8 10.9l121.8-119.3q-5.3-1.8-10.9-3zm-19.9-2.1c-3.9 0-7.8 0.3-11.6 0.7l-82.9 81.3c-0.7 4.4-1 8.9-1 13.5q0 0.5 0 1l98.5-96.4q-1.5-0.1-3-0.1zm44 10.7l-129.6 127.1q2.2 4.5 4.9 8.7l133.4-130.7q-4.2-2.7-8.7-5.1zm34.1 29.9l-134.6 131.9q4 2.9 8.3 5.4l131.6-128.9q-2.4-4.4-5.3-8.4zm-15.5-17.1l-135.9 133.2q3.1 3.7 6.6 7.1l136.3-133.6q-3.3-3.6-7-6.7zm26.7 38.3l-124.8 122.3q5 2.1 10.3 3.5l117.8-115.4q-1.3-5.4-3.3-10.4zm-12.2 90c6-8.2 10.7-17.3 13.8-27.1l-63.6 62.3c9.9-2.9 19.2-7.5 27.4-13.3zm18.4-56.3c0-2.4-0.1-4.8-0.3-7.2l-104.4 102.3q4.6 0.4 9.2 0.4 2.2 0 4.4-0.1l90.9-89.1q0.2-3.1 0.2-6.3z"/><path class="a" d="m329.7 26.4c0 2.5-1.9 4.4-4.3 4.4-2.4 0-4.4-1.9-4.4-4.4 0-2.4 2-4.4 4.4-4.4 2.4 0 4.3 2 4.3 4.4zm31.3 0c0 2.5-2 4.4-4.4 4.4-2.4 0-4.3-1.9-4.3-4.4 0-2.4 1.9-4.4 4.3-4.4 2.4 0 4.4 2 4.4 4.4zm31.2 0c0 2.5-1.9 4.4-4.3 4.4-2.4 0-4.4-1.9-4.4-4.4 0-2.4 2-4.4 4.4-4.4 2.4 0 4.3 2 4.3 4.4zm31.3 0c0 2.5-2 4.4-4.4 4.4-2.4 0-4.3-1.9-4.3-4.4 0-2.4 1.9-4.4 4.3-4.4 2.4 0 4.4 2 4.4 4.4zm31.3 0c0 2.5-2 4.4-4.4 4.4-2.4 0-4.4-1.9-4.4-4.4 0-2.4 2-4.4 4.4-4.4 2.4 0 4.4 2 4.4 4.4zm31.2 0c0 2.5-2 4.4-4.4 4.4-2.4 0-4.3-1.9-4.3-4.4 0-2.4 1.9-4.4 4.3-4.4 2.4 0 4.4 2 4.4 4.4zm-156.3 31.6c0 2.4-1.9 4.4-4.3 4.4-2.4 0-4.4-2-4.4-4.4 0-2.4 2-4.4 4.4-4.4 2.4 0 4.3 2 4.3 4.4zm31.3 0c0 2.4-2 4.4-4.4 4.4-2.4 0-4.3-2-4.3-4.4 0-2.4 1.9-4.4 4.3-4.4 2.4 0 4.4 2 4.4 4.4zm31.2 0c0 2.4-1.9 4.4-4.3 4.4-2.4 0-4.4-2-4.4-4.4 0-2.4 2-4.4 4.4-4.4 2.4 0 4.3 2 4.3 4.4zm31.3 0c0 2.4-2 4.4-4.4 4.4-2.4 0-4.3-2-4.3-4.4 0-2.4 1.9-4.4 4.3-4.4 2.4 0 4.4 2 4.4 4.4zm31.3 0c0 2.4-2 4.4-4.4 4.4-2.4 0-4.4-2-4.4-4.4 0-2.4 2-4.4 4.4-4.4 2.4 0 4.4 2 4.4 4.4zm31.2 0c0 2.4-2 4.4-4.4 4.4-2.4 0-4.3-2-4.3-4.4 0-2.4 1.9-4.4 4.3-4.4 2.4 0 4.4 2 4.4 4.4zm-156.3 31.6c0 2.4-1.9 4.4-4.3 4.4-2.4 0-4.4-2-4.4-4.4 0-2.5 2-4.4 4.4-4.4 2.4 0 4.3 1.9 4.3 4.4zm31.3 0c0 2.4-2 4.4-4.4 4.4-2.4 0-4.3-2-4.3-4.4 0-2.5 1.9-4.4 4.3-4.4 2.4 0 4.4 1.9 4.4 4.4zm31.2 0c0 2.4-1.9 4.4-4.3 4.4-2.4 0-4.4-2-4.4-4.4 0-2.5 2-4.4 4.4-4.4 2.4 0 4.3 1.9 4.3 4.4zm31.3 0c0 2.4-2 4.4-4.4 4.4-2.4 0-4.3-2-4.3-4.4 0-2.5 1.9-4.4 4.3-4.4 2.4 0 4.4 1.9 4.4 4.4zm31.3 0c0 2.4-2 4.4-4.4 4.4-2.4 0-4.4-2-4.4-4.4 0-2.5 2-4.4 4.4-4.4 2.4 0 4.4 1.9 4.4 4.4zm31.2 0c0 2.4-2 4.4-4.4 4.4-2.4 0-4.3-2-4.3-4.4 0-2.5 1.9-4.4 4.3-4.4 2.4 0 4.4 1.9 4.4 4.4z"/><path class="a" d="m1510.6 369.7c-2.5 0-4.4-1.9-4.4-4.3 0-2.4 1.9-4.4 4.4-4.4 2.4 0 4.4 2 4.4 4.4 0 2.4-2 4.3-4.4 4.3zm0 31.3c-2.5 0-4.4-2-4.4-4.4 0-2.4 1.9-4.3 4.4-4.3 2.4 0 4.4 1.9 4.4 4.3 0 2.4-2 4.4-4.4 4.4zm0 31.2c-2.5 0-4.4-1.9-4.4-4.3 0-2.4 1.9-4.4 4.4-4.4 2.4 0 4.4 2 4.4 4.4 0 2.4-2 4.3-4.4 4.3zm0 31.3c-2.5 0-4.4-2-4.4-4.4 0-2.4 1.9-4.3 4.4-4.3 2.4 0 4.4 1.9 4.4 4.3 0 2.4-2 4.4-4.4 4.4zm0 31.3c-2.5 0-4.4-2-4.4-4.4 0-2.4 1.9-4.4 4.4-4.4 2.4 0 4.4 2 4.4 4.4 0 2.4-2 4.4-4.4 4.4zm0 31.2c-2.5 0-4.4-2-4.4-4.4 0-2.4 1.9-4.3 4.4-4.3 2.4 0 4.4 1.9 4.4 4.3 0 2.4-2 4.4-4.4 4.4zm-31.6-156.3c-2.4 0-4.4-1.9-4.4-4.3 0-2.4 2-4.4 4.4-4.4 2.4 0 4.4 2 4.4 4.4 0 2.4-2 4.3-4.4 4.3zm0 31.3c-2.4 0-4.4-2-4.4-4.4 0-2.4 2-4.3 4.4-4.3 2.4 0 4.4 1.9 4.4 4.3 0 2.4-2 4.4-4.4 4.4zm0 31.2c-2.4 0-4.4-1.9-4.4-4.3 0-2.4 2-4.4 4.4-4.4 2.4 0 4.4 2 4.4 4.4 0 2.4-2 4.3-4.4 4.3zm0 31.3c-2.4 0-4.4-2-4.4-4.4 0-2.4 2-4.3 4.4-4.3 2.4 0 4.4 1.9 4.4 4.3 0 2.4-2 4.4-4.4 4.4zm0 31.3c-2.4 0-4.4-2-4.4-4.4 0-2.4 2-4.4 4.4-4.4 2.4 0 4.4 2 4.4 4.4 0 2.4-2 4.4-4.4 4.4zm0 31.2c-2.4 0-4.4-2-4.4-4.4 0-2.4 2-4.3 4.4-4.3 2.4 0 4.4 1.9 4.4 4.3 0 2.4-2 4.4-4.4 4.4zm-31.6-156.3c-2.4 0-4.4-1.9-4.4-4.3 0-2.4 2-4.4 4.4-4.4 2.5 0 4.4 2 4.4 4.4 0 2.4-1.9 4.3-4.4 4.3zm0 31.3c-2.4 0-4.4-2-4.4-4.4 0-2.4 2-4.3 4.4-4.3 2.5 0 4.4 1.9 4.4 4.3 0 2.4-1.9 4.4-4.4 4.4zm0 31.2c-2.4 0-4.4-1.9-4.4-4.3 0-2.4 2-4.4 4.4-4.4 2.5 0 4.4 2 4.4 4.4 0 2.4-1.9 4.3-4.4 4.3zm0 31.3c-2.4 0-4.4-2-4.4-4.4 0-2.4 2-4.3 4.4-4.3 2.5 0 4.4 1.9 4.4 4.3 0 2.4-1.9 4.4-4.4 4.4zm0 31.3c-2.4 0-4.4-2-4.4-4.4 0-2.4 2-4.4 4.4-4.4 2.5 0 4.4 2 4.4 4.4 0 2.4-1.9 4.4-4.4 4.4zm0 31.2c-2.4 0-4.4-2-4.4-4.4 0-2.4 2-4.3 4.4-4.3 2.5 0 4.4 1.9 4.4 4.3 0 2.4-1.9 4.4-4.4 4.4z"/><path class="a" d="m240.8 230.7l-15.1-12.6-15.5 12.2-15-12.5-15.4 12.2-17.7-14.7 5.5-6.9 12.4 10.3 15.4-12.2 15 12.5 15.5-12.2 15.1 12.6 12.7-10.1 5.2 7z"/><path class="a" d="m1482.8 746.7l-15.1-12.6-15.5 12.2-15-12.5-15.4 12.2-17.7-14.7 5.5-6.9 12.4 10.3 15.4-12.2 15 12.5 15.5-12.2 15.1 12.6 12.7-10.1 5.2 7z"/><path class="a" d="m158.2 674.1l-20.5 20.1c7.8-5.6 14.8-12.3 20.5-20.1zm-150.3-87.9l45-44.1c-19.9 8.6-36 24.4-45 44.1zm97.9-49.3l-104.2 102.1q1 5.1 2.5 10l111.6-109.3q-4.9-1.7-9.9-2.8zm-18.3-1.9q-5.4 0-10.6 0.7l-76 74.4q-0.9 6.1-0.9 12.4 0 0.5 0 0.9l90.2-88.3q-1.3-0.1-2.7-0.1zm40.3 9.8l-118.8 116.4q2.1 4.2 4.6 8.1l122.2-119.8q-3.9-2.5-8-4.7zm31.2 27.4l-123.3 120.8q3.7 2.7 7.6 5l120.6-118.1q-2.2-4-4.9-7.7zm-14.1-15.7l-124.6 122q2.9 3.5 6.1 6.6l124.9-122.4q-3-3.3-6.4-6.2zm24.5 35.1l-114.5 112.1q4.6 1.9 9.5 3.2l108-105.8q-1.3-4.9-3-9.5zm-11.2 82.5c5.4-7.5 9.7-15.9 12.6-24.9l-58.3 57.1c9.1-2.7 17.6-6.8 25.2-12.1zm16.8-51.6q0-3.4-0.3-6.6l-95.6 93.7q4.1 0.4 8.4 0.4 2 0 4-0.1l83.3-81.7q0.2-2.8 0.2-5.7z"/></svg>