<?xml version="1.0" encoding="utf-8"?>
<svg width="226px" height="50px" viewBox="0 0 226 50" version="1.1" xmlns:xlink="http://www.w3.org/1999/xlink" xmlns="http://www.w3.org/2000/svg">
  <desc>Created with Lunacy</desc>
  <defs>
    <path d="M0 0L226 0L226 50L0 50L0 0Z" id="path_1" />
    <clipPath id="mask_1">
      <use xlink:href="#path_1" />
    </clipPath>
  </defs>
  <g id="hb-logo-white">
    <path d="M0 0L226 0L226 50L0 50L0 0Z" id="Background" fill="none" stroke="none" />
    <g clip-path="url(#mask_1)">
      <g id="Discover" transform="translate(77.435 31.132)">
        <path d="M0 8.798C0 9.448 0.999001 9.475 1.107 9.475L3.578 9.475C5.563 9.475 7.44 8.798 7.44 6.348L7.44 3.127C7.44 0.676998 5.563 0 3.578 0L0 0L0 8.798ZM1.135 8.54L1.135 0.933998L3.579 0.933998C5.105 0.933998 6.307 1.488 6.307 3.248L6.307 6.212C6.307 7.972 5.105 8.54 3.579 8.54L1.135 8.54Z" transform="translate(0 0.663002)" id="Shape" fill="#FFFFFF" fill-rule="evenodd" stroke="none" />
        <path d="M0.850998 0L0 0L0 0.894003C0 1.03 0.107994 1.138 0.242996 1.138L1.07999 1.138L1.07999 0.244001C1.07999 0.122 0.973 0 0.850998 0ZM1.08 3.1C1.08 2.409 0 2.423 0 2.423L0 8.703C0 9.38 1.08 9.38 1.08 9.38L1.08 3.1Z" transform="translate(9.334999 0.8519993)" id="Shape" fill="#FFFFFF" fill-rule="evenodd" stroke="none" />
        <path d="M2.646 0C4.037 0 5.144 0.379002 5.144 1.299C5.144 1.597 5.022 1.963 4.75201 2.382C4.75201 1.448 4.036 0.946999 2.646 0.946999C1.39001 0.946999 1.08 1.299 1.08 2.111C1.08 3.721 5.428 1.894 5.428 5.035C5.428 6.266 4.496 7.092 2.646 7.092C1.228 7.092 0.0400009 6.699 0.0400009 5.752C0.0400009 5.454 0.148003 5.116 0.404999 4.71C0.404999 5.657 1.256 6.145 2.647 6.145C4.03799 6.145 4.349 5.644 4.349 4.967C4.349 3.019 0 4.954 0 2.112C-0.000999451 0.743999 0.931999 0 2.646 0L2.646 0Z" transform="translate(11.902 3.2080002)" id="Shape" fill="#FFFFFF" stroke="none" />
        <path d="M2.782 7.092C1.067 7.092 0 6.28 0 4.913L0 2.179C0 0.813 1.067 0 2.782 0C4.362 0 5.834 0.813 4.753 2.382C4.753 1.435 3.835 0.946999 2.862 0.946999C1.606 0.946999 1.08 1.434 1.08 2.382L1.08 4.71C1.08 5.657 1.606 6.145 2.862 6.145C4.037 6.145 5.023 5.658 5.023 4.71C6.104 6.28 4.49699 7.092 2.782 7.092L2.782 7.092Z" transform="translate(18.683006 3.2079964)" id="Shape" fill="#FFFFFF" stroke="none" />
        <path d="M2.917 7.092C4.902 7.092 5.834 6.28 5.834 4.913L5.834 2.179C5.834 0.813 4.902 0 2.917 0C0.931999 0 0 0.813 0 2.179L0 4.913C0 6.28 0.931999 7.092 2.917 7.092ZM2.917 0.880005C4.442 0.880005 4.753 1.43501 4.753 2.382L4.753 4.71C4.753 5.657 4.442 6.212 2.917 6.212C1.392 6.212 1.081 5.657 1.081 4.71L1.081 2.382C1.081 1.43501 1.392 0.880005 2.917 0.880005Z" transform="translate(25.410004 3.2079964)" id="Shape" fill="#FFFFFF" fill-rule="evenodd" stroke="none" />
        <path d="M5.537 2.64C5.22601 5.726 2.932 7.093 2.904 7.106C2.877 7.093 0.581001 5.726 0.269997 2.64L0 0C0 0 1.04 0 1.121 0.676998L1.391 2.938C1.62 4.819 2.904 5.929 2.904 5.929C2.904 5.929 4.187 4.819 4.417 2.938L4.687 0.676998C4.768 0 5.808 0 5.808 0L5.537 2.64L5.537 2.64Z" transform="translate(32.461 3.2750015)" id="Shape" fill="#FFFFFF" stroke="none" />
        <path d="M2.781 7.092C4.104 7.092 5.374 6.604 5.374 5.657C5.374 5.373 5.26701 5.061 5.023 4.71C5.023 5.658 4.037 6.145 2.862 6.145C1.606 6.145 1.08 5.65699 1.08 4.71L1.08 3.722C1.404 3.952 2.106 4.047 2.565 4.047C4.551 4.047 5.293 3.14 5.293 2.044C5.293 0.813 4.44299 0 2.728 0C1.013 0 0 0.813 0 2.179L0 4.913C0 6.28 1.066 7.092 2.781 7.092ZM2.484 3.099C1.903 3.099 1.094 2.882 1.08 2.855L1.08099 2.855L1.08099 2.381C1.08099 1.434 1.52599 0.878998 2.728 0.878998C3.835 0.878998 4.213 1.353 4.213 2.043C4.213 2.706 3.767 3.099 2.484 3.099Z" transform="translate(39.486 3.2080002)" id="Shape" fill="#FFFFFF" fill-rule="evenodd" stroke="none" />
        <path d="M1.08 1.191L1.08 7.024C1.08 7.024 0 7.024 0 6.347L0 0.0670014C0.311005 0.23 0.580994 0.284 0.822998 0.284C1.39 0.284 1.849 0 2.593 0C3.53801 0 4.187 0.365002 4.187 1.097C4.187 1.421 4.065 1.705 3.80899 2.058C3.80899 1.313 3.161 0.960999 2.37698 0.960999C1.661 0.960999 1.08 1.191 1.08 1.191L1.08 1.191Z" transform="translate(46.483 3.2080002)" id="Shape" fill="#FFFFFF" stroke="none" />
        <path d="M2.377 0L0 0L0 8.933C0 9.61 1.13499 9.61 1.13499 9.61L1.13499 6.24L2.377 6.24C4.36299 6.24 6.105 5.589 6.105 3.235L6.105 2.991C6.105 0.568998 4.362 0 2.377 0ZM1.13501 5.305L1.13501 0.933996L2.37701 0.933996C3.90402 0.933996 4.97002 1.353 4.97002 3.113C4.97002 5.007 3.90302 5.305 2.37701 5.305L1.13501 5.305Z" transform="translate(55.005997 0.6630001)" id="Shape" fill="#FFFFFF" fill-rule="evenodd" stroke="none" />
        <path d="M2.91701 7.092C4.901 7.092 5.83301 6.28 5.83301 4.913L5.83301 2.179C5.83301 0.813 4.901 0 2.91701 0C0.932007 0 0 0.813 0 2.179L0 4.913C0 6.28 0.932007 7.092 2.91701 7.092ZM2.916 0.880005C4.44099 0.880005 4.752 1.43501 4.752 2.382L4.752 4.71C4.752 5.657 4.44099 6.212 2.916 6.212C1.39 6.212 1.07899 5.657 1.07899 4.71L1.07899 2.382C1.07899 1.43501 1.39 0.880005 2.916 0.880005Z" transform="translate(62.586 3.2079964)" id="Shape" fill="#FFFFFF" fill-rule="evenodd" stroke="none" />
        <path d="M2.646 0C4.03799 0 5.14499 0.379002 5.14499 1.299C5.14499 1.597 5.02299 1.963 4.75299 2.382C4.75299 1.448 4.03699 0.946999 2.646 0.946999C1.39 0.946999 1.08 1.299 1.08 2.111C1.08 3.721 5.429 1.894 5.429 5.035C5.429 6.266 4.49699 7.092 2.647 7.092C1.229 7.092 0.0420074 6.699 0.0420074 5.752C0.0420074 5.454 0.149002 5.116 0.406006 4.71C0.406006 5.657 1.257 6.145 2.647 6.145C4.039 6.145 4.349 5.644 4.349 4.967C4.349 3.019 0 4.954 0 2.112C-0.00100708 0.743999 0.931 0 2.646 0L2.646 0Z" transform="translate(69.77301 3.2080002)" id="Shape" fill="#FFFFFF" stroke="none" />
        <path d="M2.646 0C4.03799 0 5.14499 0.379002 5.14499 1.299C5.14499 1.597 5.02299 1.963 4.75299 2.382C4.75299 1.448 4.03699 0.946999 2.646 0.946999C1.39 0.946999 1.08 1.299 1.08 2.111C1.08 3.721 5.429 1.894 5.429 5.035C5.429 6.266 4.49699 7.092 2.647 7.092C1.229 7.092 0.0420074 6.699 0.0420074 5.752C0.0420074 5.454 0.149002 5.116 0.406006 4.71C0.406006 5.657 1.257 6.145 2.647 6.145C4.039 6.145 4.349 5.644 4.349 4.967C4.349 3.019 0 4.954 0 2.112C0 0.743999 0.931 0 2.646 0L2.646 0Z" transform="translate(76.283005 3.2080002)" id="Shape" fill="#FFFFFF" stroke="none" />
        <path d="M0.850998 0L0 0L0 0.894003C0 1.03 0.108002 1.138 0.242996 1.138L1.08 1.138L1.08 0.244001C1.08 0.122 0.972992 0 0.850998 0ZM1.08 3.1C1.08 2.409 0 2.423 0 2.423L0 8.703C0 9.38 1.08 9.38 1.08 9.38L1.08 3.1Z" transform="translate(83.2 0.8519993)" id="Shape" fill="#FFFFFF" fill-rule="evenodd" stroke="none" />
        <path d="M2.57899 10.272C4.42999 10.272 5.41499 9.48701 5.41499 8.12101L5.41402 8.12101L5.41402 5.32002C5.41402 3.98002 4.32101 3.18102 3.05101 3.18102C1.41801 3.18102 0.945007 3.92501 0.945007 3.92501C0.945007 3.92501 1.08 3.61502 1.08 2.69402L1.08 0.813015C1.08 -0.00201123 0.123317 -0.00021384 0.00468032 9.0497e-06L0 1.52588e-05L0 9.78502C0.998993 9.89301 1.43199 10.272 2.57899 10.272ZM2.55299 9.39302C1.53999 9.39302 1.08099 9.05502 1.08099 9.05502L1.08099 5.38602C1.08099 4.60102 1.98599 4.06002 2.877 4.06002C3.715 4.06002 4.336 4.50602 4.336 5.52202L4.336 7.91802C4.336 8.90702 3.94499 9.39302 2.55299 9.39302Z" transform="translate(86.171005 0.026985168)" id="Shape" fill="#FFFFFF" fill-rule="evenodd" stroke="none" />
        <path d="M0.850998 0L0 0L0 0.894003C0 1.03 0.108002 1.138 0.242996 1.138L1.08 1.138L1.08 0.244001C1.08 0.122 0.972992 0 0.850998 0ZM1.08 3.1C1.08 2.409 0 2.423 0 2.423L0 8.703C0 9.38 1.08 9.38 1.08 9.38L1.08 3.1Z" transform="translate(93.34401 0.8519993)" id="Shape" fill="#FFFFFF" fill-rule="evenodd" stroke="none" />
        <path d="M0 0C0.0670014 0 1.08 0.0139999 1.08 0.677L1.08 7.877C1.08 8.69 1.323 9.895 2.05301 9.895C1.76901 10.138 1.49901 10.233 1.25601 10.233C0.392014 10.233 1.52588e-05 9.339 1.52588e-05 8.311L1.52588e-05 0L0 0Z" transform="translate(96.24901 0)" id="Shape" fill="#FFFFFF" stroke="none" />
        <path d="M0.850998 0L0 0L0 0.894003C0 1.03 0.108002 1.138 0.242996 1.138L1.08 1.138L1.08 0.244001C1.08 0.122 0.972992 0 0.850998 0ZM1.08 3.1C1.08 2.409 0 2.423 0 2.423L0 8.703C0 9.38 1.08 9.38 1.08 9.38L1.08 3.1Z" transform="translate(99.28801 0.8519993)" id="Shape" fill="#FFFFFF" fill-rule="evenodd" stroke="none" />
        <path d="M0 0C0 0 1.08 0.0139999 1.08 0.689999L1.08 1.813L3.90201 1.813C3.90201 1.813 3.888 2.747 3.22701 2.747L1.08 2.747L1.08 5.982C1.08 6.957 1.418 7.592 2.48401 7.592C3.41602 7.592 4.21301 7.078 4.21301 6.157C4.47002 6.536 4.57802 6.875 4.57802 7.159C4.57802 8.079 3.47102 8.539 2.37701 8.539C0.932007 8.539 1.52588e-05 7.727 1.52588e-05 6.36L1.52588e-05 0L0 0Z" transform="translate(102.259 1.7599983)" id="Shape" fill="#FFFFFF" stroke="none" />
        <path d="M0.850998 0L0 0L0 0.894003C0 1.03 0.108002 1.138 0.242996 1.138L1.08 1.138L1.08 0.244001C1.08 0.122 0.972992 0 0.850998 0ZM1.08 3.1C1.08 2.409 0 2.423 0 2.423L0 8.703C0 9.38 1.08 9.38 1.08 9.38L1.08 3.1Z" transform="translate(107.866 0.8519993)" id="Shape" fill="#FFFFFF" fill-rule="evenodd" stroke="none" />
        <path d="M2.78101 7.092C4.104 7.092 5.37401 6.604 5.37401 5.657C5.37401 5.373 5.26602 5.061 5.02299 4.71C5.02299 5.658 4.037 6.145 2.862 6.145C1.606 6.145 1.08 5.65699 1.08 4.71L1.08 3.722C1.40401 3.952 2.106 4.047 2.565 4.047C4.55099 4.047 5.293 3.14 5.293 2.044C5.293 0.813 4.44299 0 2.728 0C1.013 0 0 0.813 0 2.179L0 4.913C0 6.28 1.06601 7.092 2.78101 7.092ZM2.48402 3.099C1.90302 3.099 1.09402 2.882 1.08002 2.855L1.08102 2.855L1.08102 2.381C1.08102 1.434 1.52603 0.878998 2.72803 0.878998C3.83502 0.878998 4.21303 1.353 4.21303 2.043C4.21303 2.706 3.76703 3.099 2.48402 3.099Z" transform="translate(110.70299 3.2080002)" id="Shape" fill="#FFFFFF" fill-rule="evenodd" stroke="none" />
        <path d="M2.646 0C4.03799 0 5.14499 0.379002 5.14499 1.299C5.14499 1.597 5.02299 1.963 4.75299 2.382C4.75299 1.448 4.03699 0.946999 2.646 0.946999C1.39 0.946999 1.08 1.299 1.08 2.111C1.08 3.721 5.429 1.894 5.429 5.035C5.429 6.266 4.49699 7.092 2.647 7.092C1.229 7.092 0.0420074 6.699 0.0420074 5.752C0.0420074 5.454 0.149002 5.116 0.406006 4.71C0.406006 5.657 1.257 6.145 2.647 6.145C4.039 6.145 4.349 5.644 4.349 4.967C4.349 3.019 0 4.954 0 2.112C-0.00100708 0.743999 0.930984 0 2.646 0L2.646 0Z" transform="translate(117.29501 3.2080002)" id="Shape" fill="#FFFFFF" stroke="none" />
      </g>
      <g id="HB" transform="translate(62.704994 7.4259987)">
        <path d="M10.537 9.986L3.932 9.986L3.932 17.109C3.932 17.109 0 17.109 0 15.345L0 0C0 0 3.932 0 3.932 1.764L3.932 7.169L10.537 7.169L10.537 0C10.537 0 14.469 0 14.469 1.764L14.469 17.109C14.469 17.109 10.537 17.109 10.537 15.345L10.537 9.986L10.537 9.986Z" transform="translate(0 0.84699965)" id="Shape" fill="#FFFFFF" stroke="none" />
        <path d="M2.537 0L0.0680084 0L0.0680084 2.222C0.0680084 2.634 0.571007 3.069 1.27901 3.069L3.72501 3.069L3.72501 0.87C3.72501 0.527 3.223 0 2.537 0ZM3.84 6.139C3.84 4.444 0.32 4.375 0 4.375L0 15.003C0 16.766 3.84 16.766 3.84 16.766L3.84 6.139Z" transform="translate(17.214005 1.1220002)" id="Shape" fill="#FFFFFF" fill-rule="evenodd" stroke="none" />
        <path d="M11.177 18.002L11.177 1.992C11.177 0.0229998 7.725 0 7.337 0L7.337 4.901C7.337 5.359 7.497 6.092 7.497 6.092C7.497 6.092 6.377 5.382 5.028 5.382C2.331 5.382 0 6.985 0 9.619L0 13.742C0 16.467 2.057 18.002 5.6 18.002C6.423 18.002 7.726 17.612 9.143 17.612C9.92 17.612 10.514 17.635 11.177 18.002ZM5.326 8.085C6.354 8.085 7.337 8.749 7.337 9.734L7.33699 15.254C7.33699 15.254 6.51399 15.392 5.87399 15.392C4.32 15.392 3.84 14.681 3.84 13.399L3.84 9.963C3.84 8.658 4.45699 8.085 5.326 8.085Z" transform="translate(23.341011 0)" id="Shape" fill="#FFFFFF" fill-rule="evenodd" stroke="none" />
        <path d="M11.176 18.002L11.176 1.992C11.176 0.0229998 7.72399 0 7.337 0L7.337 4.901C7.337 5.359 7.497 6.092 7.497 6.092C7.497 6.092 6.377 5.382 5.028 5.382C2.331 5.382 0 6.985 0 9.619L0 13.742C0 16.467 2.057 18.002 5.6 18.002C6.422 18.002 7.725 17.612 9.142 17.612C9.91899 17.612 10.514 17.635 11.176 18.002ZM5.32499 8.085C6.35299 8.085 7.33599 8.749 7.33599 9.734L7.33598 15.254C7.33598 15.254 6.51299 15.392 5.87299 15.392C4.31899 15.392 3.83899 14.681 3.83899 13.399L3.83899 9.963C3.83899 8.658 4.45599 8.085 5.32499 8.085Z" transform="translate(36.807014 0)" id="Shape" fill="#FFFFFF" fill-rule="evenodd" stroke="none" />
        <path d="M0 4.306L0 8.314C0 11.017 2.103 12.62 6.01101 12.621C8.91401 12.621 10.766 11.315 10.766 9.643C10.766 9.002 10.492 8.314 9.94301 7.559C9.92101 8.75 8.50301 9.826 6.12601 9.826C4.732 9.826 3.841 9.254 3.841 7.971L3.841 7.604C3.841 7.604 4.549 7.971 5.715 7.971C9.533 7.971 10.561 6.093 10.561 4.077C10.561 1.626 9.052 0 5.509 0C1.966 0 0 1.626 0 4.306ZM5.14301 5.337C4.662 5.337 4.18301 5.245 3.84 5.153L3.84 4.649C3.84 3.39 4.20501 2.702 5.34801 2.702C6.354 2.702 6.743 3.252 6.743 4.077C6.743 5.062 5.965 5.337 5.14301 5.337Z" transform="translate(50.271004 5.3820004)" id="Shape" fill="#FFFFFF" fill-rule="evenodd" stroke="none" />
        <path d="M7.33699 4.466C7.33699 3.389 6.90199 2.817 5.59999 2.817C4.79999 2.817 3.84 3.023 3.84 3.023L3.84 12.574C3.84 12.574 0 12.574 0 10.811L0 0C0 0 1.00501 0.55 2.51399 0.55C3.63399 0.55 4.70799 0.0690002 5.92 0.0690002C8.48 0.0690002 11.177 0.939 11.177 4.123L11.177 12.574C11.177 12.574 7.33701 12.529 7.33701 10.811L7.33701 4.466L7.33699 4.466Z" transform="translate(63.16401 5.3139997)" id="Shape" fill="#FFFFFF" stroke="none" />
        <path d="M5.737 0L1.52588e-05 0L1.52588e-05 14.886C1.52588e-05 16.627 2.92601 16.65 2.92601 16.65L5.73801 16.65C9.647 16.65 12.344 15.368 12.344 12.184L12.344 11.68C12.344 10.261 11.544 8.726 10.286 8.222C11.36 7.81 12.115 6.207 12.115 4.878L12.115 4.42C12.115 1.077 9.44 0 5.737 0ZM3.93201 2.795L3.93201 6.872L5.92101 6.872C7.589 6.872 8.18401 6.047 8.18401 4.536C8.18401 3.23 7.384 2.795 5.73801 2.795L3.93201 2.795ZM3.93201 13.88L3.93201 9.643L5.92201 9.643C7.65901 9.643 8.41301 10.307 8.41301 11.842C8.41301 13.331 7.61301 13.88 5.73801 13.88L3.93201 13.88Z" transform="translate(83.486 1.0759997)" id="Shape" fill="#FFFFFF" fill-rule="evenodd" stroke="none" />
        <path d="M0 10.81L0 0C0.822998 0.389 1.44 0.55 2.01199 0.55C3.064 0.55 4.23 0.0690002 5.66899 0.0690002C7.29199 0.0690002 9.05199 0.618 9.05199 2.428C9.05199 4.031 7.65698 5.154 7.65698 5.154C7.65698 3.001 5.55399 2.657 3.84099 3.047L3.84099 12.575C3.841 12.573 0 12.573 0 10.81L0 10.81Z" transform="translate(98.118004 5.3139997)" id="Shape" fill="#FFFFFF" stroke="none" />
        <path d="M0.321014 2.771C0.321014 3.481 0.527023 4.306 1.37302 5.428C1.37302 3.253 3.33902 2.726 5.09799 2.726C6.58299 2.726 6.99499 3.368 6.99499 3.917C5.94299 5.451 0 4.673 0 8.864C0 11.749 2.468 12.62 5.02901 12.62C6.37801 12.62 7.657 12.208 8.869 12.208C9.509 12.208 10.194 12.276 10.835 12.62L10.835 4.1C10.835 1.443 8.87001 0 5.14401 0C3.56702 0 0.321014 0.458 0.321014 2.771ZM3.84001 8.727C3.84001 7.261 6.44701 7.627 7.06401 6.665L7.06401 9.78C7.06401 9.78 6.218 10.032 5.395 10.032C4.617 10.032 3.84001 9.803 3.84001 8.727Z" transform="translate(107.46699 5.3820004)" id="Shape" fill="#FFFFFF" fill-rule="evenodd" stroke="none" />
        <path d="M2.53801 0L0.0700073 0L0.0700073 2.222C0.0700073 2.634 0.572006 3.069 1.28101 3.069L3.72701 3.069L3.72701 0.87C3.72701 0.527 3.22501 0 2.53801 0ZM3.841 6.139C3.841 4.444 0.320007 4.375 0 4.375L0 15.003C0 16.766 3.841 16.766 3.841 16.766L3.841 6.139Z" transform="translate(120.704 1.1220002)" id="Shape" fill="#FFFFFF" fill-rule="evenodd" stroke="none" />
        <path d="M7.33699 4.466C7.33699 3.389 6.90199 2.817 5.59999 2.817C4.79999 2.817 3.84 3.023 3.84 3.023L3.84 12.574C3.84 12.574 0 12.574 0 10.811L0 0C0 0 1.005 0.55 2.51401 0.55C3.634 0.55 4.70801 0.0690002 5.92001 0.0690002C8.48001 0.0690002 11.177 0.939 11.177 4.123L11.177 12.574C11.177 12.574 7.33702 12.529 7.33702 10.811L7.33702 4.466L7.33699 4.466Z" transform="translate(127.12902 5.3139997)" id="Shape" fill="#FFFFFF" stroke="none" />
        <path d="M0 3.985C0 1.259 1.966 0 5.509 0C8.617 0 10.492 0.87 10.492 2.382C10.492 3.023 10.149 3.802 9.418 4.65C9.418 3.321 7.47501 2.772 5.897 2.772C4.709 2.772 3.771 3.047 3.771 3.734C3.771 5.544 11.2 3.185 11.2 8.75C11.2 11.178 9.30299 12.621 5.509 12.621C2.218 12.621 0.251999 11.544 0.251999 9.987C0.251999 9.254 0.709 8.429 1.69099 7.536C1.78299 9.758 4.27399 9.895 5.508 9.895C6.239 9.895 7.42799 9.78 7.42799 8.635C7.429 6.642 0 9.047 0 3.985L0 3.985Z" transform="translate(140.137 5.3819995)" id="Shape" fill="#FFFFFF" stroke="none" />
      </g>
      <g id="r" transform="translate(213.93 4.598999)">
        <path d="M4.673 9.175C7.282 9.175 9.289 7.168 9.289 4.559C9.289 2.007 7.28201 0.000999928 4.702 0C2.063 0 0 2.007 0 4.559C0 7.168 2.06401 9.175 4.673 9.175ZM4.70201 8.344C2.58 8.344 1.00301 6.681 1.00301 4.559C1.00301 2.495 2.58 0.803 4.644 0.803C6.737 0.803 8.285 2.495 8.285 4.588C8.285 6.681 6.73702 8.373 4.70201 8.344ZM3.83998 7.082L2.952 7.082L2.952 2.294C3.439 2.208 3.955 2.151 4.614 2.151C5.41699 2.151 5.819 2.294 6.105 2.524C6.392 2.725 6.592 3.097 6.592 3.556C6.592 4.129 6.162 4.502 5.67499 4.674L5.67499 4.731C6.07599 4.903 6.30598 5.276 6.44798 5.907C6.59198 6.624 6.70699 6.91 6.82098 7.082L5.90398 7.082C5.75998 6.91 5.64497 6.48 5.50298 5.849C5.38797 5.305 5.07198 5.075 4.41298 5.075L3.83998 5.075L3.83998 7.082ZM4.44301 4.387L3.841 4.387L3.841 2.895C3.985 2.867 4.18501 2.838 4.52901 2.838C5.36101 2.838 5.67601 3.183 5.67601 3.641C5.67601 4.186 5.07401 4.387 4.44301 4.387Z" id="Shape" fill="#FFFFFF" fill-rule="evenodd" stroke="none" />
      </g>
      <g id="Group" transform="translate(-0.09541321 1.2779999)">
        <path d="M9.734 9.661L9.734 9.661C8.063 5.592 4.924 3.305 1.886 4.473L0 0C3.219 0.65 5.414 2.208 6.953 4.134C8.319 5.842 9.019 7.639 9.734 9.661L9.734 9.661Z" transform="translate(4.9994106 1.1920929E-07)" id="Shape" fill="#6764AD" stroke="none" />
        <path d="M12.024 23.352C11.754 18.823 11.241 13.283 9.381 8.742C8.807 7.078 8.042 5.495 6.953 4.134C5.416 2.207 3.219 0.65 0 0C12.909 1.429 15.846 11.618 17.007 21.619C15.355 22.204 13.7 22.802 12.024 23.352" transform="translate(4.9994106 0)" id="Shape" fill="#F3BB1A" stroke="none" />
        <path d="M18.2304 13.917C15.7234 17.811 12.2094 20.274 8.18841 20.499C3.83141 20.74 0.249411 16.704 0.0094111 12.529C-0.0215888 11.959 0.030411 11.426 0.0724111 10.86C0.0844111 10.736 0.093411 10.608 0.115411 10.484C-0.371589 17.399 8.17641 21.975 12.5494 16.464C14.4954 14.011 16.2834 9.456 16.8034 1.73L16.8054 1.687L22.1484 0C22.1434 0.0970001 22.1384 0.193001 22.1324 0.291C21.8704 5.141 20.6464 10.166 18.2304 13.917" transform="translate(0 26.901001)" id="Shape" fill="#F3BB1A" stroke="none" />
        <path d="M7.965 18.973C13.384 18.98 17.284 14.484 17.923 10.221C18.003 4.789 13.093 0 6.744 0C4.278 0 1.952 0.684 0 1.854L1.901 6.244C4.765 3.989 9.615 4.24 12.034 6.759C16.119 10.351 14.573 18.382 7.965 18.973" transform="translate(35.06241 25.861)" id="Shape" fill="#27A64A" stroke="none" />
        <path d="M0.134992 17.061C0.554992 14.903 1.70599 12.625 3.76799 10.458C6.78999 7.481 10.734 5.635 17.023 3.386L21.963 1.667L25.352 0.568001L26.738 0L26.997 5.629L25.365 5.998C24.284 6.336 23.191 6.635 22.104 6.949L16.761 8.636C1.64499 13.647 2.93399 23.623 7.29999 25.314C8.33899 25.774 9.59299 25.525 10.056 25.354C5.00999 27.749 -0.978008 22.778 0.134992 17.061" transform="translate(0.043418646 19.952)" id="Shape" fill="#6764AD" stroke="none" />
        <path d="M0.200668 17.516C4.84367 16.054 9.16067 13.915 12.1897 10.017L12.7497 9.257C14.4517 6.976 16.0057 2.271 12.9877 0C18.8857 3.669 18.5937 16.372 0.0146675 23.222C-0.0323334 21.296 0.034668 19.371 0.200668 17.516" transform="translate(30.655745 1.0749989)" id="Shape" fill="#6764AD" stroke="none" />
        <path d="M8.79094 6.74721C14.4079 -2.19279 22.2999 4.14321 17.6059 11.0942C17.8119 10.8472 18.0139 10.5752 18.2089 10.2792C24.2029 2.38321 16.3439 -3.62779 8.26194 2.55221C6.05794 4.23921 4.17594 6.68621 2.76494 9.67021C-2.94606 21.7382 -0.18206 43.5142 14.5509 47.1062C15.8109 47.4162 17.0599 47.5132 18.2519 47.3842C24.2909 46.7402 27.9789 41.3582 27.7059 35.5292C26.8389 41.1702 22.1179 44.5022 17.6079 44.8742C15.4889 44.9432 13.2839 44.1892 11.3059 42.4252C3.55394 35.5272 4.15094 14.1342 8.79094 6.74721" transform="translate(25.275473 0.0037902594)" id="Shape" fill="#1287C4" stroke="none" />
      </g>
    </g>
  </g>
</svg>